<svg id="Calque_1" data-name="Calque 1" xmlns="http://www.w3.org/2000/svg" viewBox="0 0 221.21 358.34">
  <defs>
    <style>
      .cls-1 {
        fill: #fea621;
      }
    </style>
  </defs>
  <path class="cls-1" d="M408.57,254.76a1.28,1.28,0,0,0,0,2.08c.43,9.3-1.26,18.59-.18,27.9l0,2.07a183,183,0,0,0,0,27.9l0,2.07a187.5,187.5,0,0,0,0,26.92c0,1,0,2,0,3.06a199.72,199.72,0,0,0,0,26.91c0,.69,0,1.38,0,2.07a220.27,220.27,0,0,0,0,27.91c0,.69,0,1.37,0,2.06a240.63,240.63,0,0,0,0,27.91v2.07a252.29,252.29,0,0,0,0,27.91v2.07a267.68,267.68,0,0,0,0,27.9c0,.69,0,1.38,0,2.07q-.7,14,0,27.91v2.07q-.14,14-.26,28l-2.59,1.66c-6.83,1-13.19,3.54-19.59,6l-1.9.4c-9.47,2.48-18.79,5.46-28,8.85l-2.07.75c-9.5,2.14-18.67,5.35-27.85,8.54-5.38,1.27-10.73,2.62-15.57,5.41-5.08.53-9.78,2.36-14.48,4.21l-2,.44c-10.65,3.25-21.32,6.42-31.93,9.8a10.27,10.27,0,0,1-8.56-.57c-5.28-2.8-10.78-5.18-16.2-7.73l-3-1.28a24.89,24.89,0,0,0-9.69-4.82,3.2,3.2,0,0,0-3.2-1.78c-4.65-3.5-9.91-5.81-15.28-7.88l-2-1.05c-1.84-1.06-3.57-2.47-5.56-3.12-7.77-2.53-12.3-7-10.49-15.83V375.72c0-.68,0-1.35,0-2V316.75c0-.67,0-1.34,0-2,.06-2.14.18-4.29.16-6.43,0-1.95.83-2.95,2.72-3.51,4.41-1.3,8.77-2.81,13.14-4.24a1.91,1.91,0,0,0,2.1-.6,175.28,175.28,0,0,0,27.94-8.07,115.85,115.85,0,0,0,24.9-7.21,9.23,9.23,0,0,0,5-1.37,1.69,1.69,0,0,0,2-.7,232.41,232.41,0,0,0,28-8.11c1.1.12,2.2.21,3-.84a233,233,0,0,0,27-7.95l2.09-.69a157.33,157.33,0,0,0,25.8-7.39c2.29-.59,4.91-.29,6.58-2.5,8.91-1,17.28-4,25.6-7.07l1.92-.43a105.37,105.37,0,0,0,17-4.9c2,.35,3.8-1.32,5.84-.57ZM308.84,553.55c-.7,3.54.07,5.49,4.16,3.85,2.85-1.15,6.09-1.2,8.66-3.12a2.1,2.1,0,0,0,2.11-.65l2-.41c9.43-2.23,18.74-4.88,27.91-8,1.11.18,2.18.19,2.93-.86a211.47,211.47,0,0,0,27-8,2.11,2.11,0,0,0,2.1-.65,39.56,39.56,0,0,0,12.94-3.94c-4.81-2.26-8.35-5.29-12.93-6.3l-5.07-2.83a237.54,237.54,0,0,0-23.76-12.2c-2.2-1.3-1.9.54-2.24,1.72-1.08,3.79-.71,8-3,11.42l-.16-27.94v-2.05c.07-6.24.17-12.48.16-18.72,0-2,0-3.95,2.07-5.1a80.28,80.28,0,0,0,19.4-5.85c8.43-1.36,16.41-4.19,24.47-6.78l.11-1.41L356.94,435.5c-1.59-1.16-1.93,0-2.16,1.2q-1,5.49-2,11c-.25.24-.08,1.06-.82.61-.1-.06-.13-.28-.13-.42q-.15-6.09-.27-12.18v-32c.94-3-1.42-6.72,2.15-9.07l2.09-.69a220.26,220.26,0,0,0,27.92-8.15l2-.38,9.92-2.62c.8-.22,1.72-.45,1.81-1.39s-.72-1.4-1.48-1.73c-3.42-1.51-6.44-3.9-10.22-4.61-1.52-1.15-2.89-2.66-5.11-2.2-7.11-5.72-15.78-8.57-23.69-12.82-1.38-.74-2.09.33-2.05,1.76-1.26,3.92-1.12,8.21-3.15,11.93q-.11-13.47-.2-26.95v-3q.09-9.73.17-19.45c0-1.8-.33-3.78,2-4.6,5-1,10-1.81,14.45-4.65,10.1-1.63,19.71-4.95,29.49-8.61-12.79-7-25.12-14.45-38.46-19.91-2.94-3.16-6.14-2.72-9.47-.73-8,2.17-16.17,4-24,7l-2.08.73a199.5,199.5,0,0,0-27.95,8.13l-2,.43c-9.48,2.38-19,4.55-28,8.45a63.18,63.18,0,0,0-18,5.16c-4.28.44-8.43,1.3-12.1,3.73l-1.8.3c-4.23,0-8,1.78-12,2.89-9,2.53-9,2.62-8.94,11.75,0,3.14.13,6.28.19,9.41v3.05q0,13.46,0,26.93V525.62c-.07,5.91-.18,11.83-.21,17.75,0,8.06,0,8.06,8,11.06,4.61,3.1,9.27,6.11,14.75,7.5,4.78,4.18,10.89,6,16.3,9,2,1.14,2.62-.31,2.66-2.05.11-4.45.18-8.9.27-13.34l.1-1.95c1.41-6.64.77-13.44,1.65-20.12l1.24.06c0,4.36-.24,8.73.9,13a1.19,1.19,0,0,0,.1,2l.21,5,.06,2.05c.25,4.74.52,9.48.74,14.23.16,3.58,2,2.56,3.89,1.47a2,2,0,0,0,2.06-.68,205.6,205.6,0,0,0,28-8.06l2-.44c3.78-.63,8.15-.62,7-6.54V403.68q0-14,0-28c0-.67,0-1.34,0-2v-30c.05-2.16.14-4.32.13-6.49s1.27-3.27,3.41-3.4c2.68-.17,2.28,1.79,2.34,3.4.07,2.16.1,4.32.14,6.48v3q0,13.49,0,27v2q0,14,0,28c0,.67,0,1.35,0,2V553.55Z" transform="translate(-187.42 -241.95)"/>
  <path class="cls-1" d="M254.91,373.71A234.29,234.29,0,0,0,254,348l5.81-.3-.66,25.95c0,.69,0,1.38-.05,2.06L258,403.65c-.55.91.51,3-1.88,2.54a1.44,1.44,0,0,0-.07-.55l-.06-1.93c-.06-9.35,0-18.71-1.08-28Z" transform="translate(-187.42 -241.95)"/>
  <path class="cls-1" d="M293.79,452.58c-2.78,0-3.1-1.81-3.11-4,0-4.29-.13-8.59-.2-12.89v-2.05c.07-2.62.21-5.24.19-7.86,0-2.23.57-3.9,3.11-4.16l1.73,1.48q0,14.06,0,28.09Z" transform="translate(-187.42 -241.95)"/>
  <path class="cls-1" d="M321.18,435.68c-.1,2.81-.19,5.63-.32,8.44-.05,1.25-.46,2.36-1.9,2.48-1.75.15-2.35-1-2.35-2.51q0-12.45,0-24.9c0-1.24.42-2.37,1.88-2.48,1.74-.15,2.33,1,2.37,2.5.13,4.81.21,9.62.32,14.42Z" transform="translate(-187.42 -241.95)"/>
</svg>
