<svg id="Calque_1" data-name="Calque 1" xmlns="http://www.w3.org/2000/svg" viewBox="0 0 336.91 453.51">
  <defs>
    <style>
      .cls-1 {
        fill: #fea621;
      }
    </style>
  </defs>
  <path class="cls-1" d="M417.2,322.39a1.27,1.27,0,0,0,0,2.08c.43,9.3-1.26,18.59-.19,27.9,0,.69,0,1.38,0,2.06a183.12,183.12,0,0,0,0,27.91l0,2.07a187.36,187.36,0,0,0,0,26.91c0,1,0,2.05,0,3.07a199.72,199.72,0,0,0,0,26.91c0,.69,0,1.38,0,2.07a218.42,218.42,0,0,0,0,27.91c0,.68,0,1.37,0,2.06a240.63,240.63,0,0,0,0,27.91c0,.69,0,1.38,0,2.07a254.75,254.75,0,0,0,0,27.91c0,.69,0,1.38,0,2.07a270.46,270.46,0,0,0,0,27.9v2.07c-.48,9.31-.47,18.61,0,27.91,0,.69,0,1.38,0,2.07q-.12,14-.25,28l-2.59,1.67c-6.83,1-13.2,3.54-19.59,6l-1.9.4c-9.48,2.48-18.79,5.46-28,8.84l-2.08.76c-9.5,2.14-18.67,5.35-27.85,8.54-5.37,1.27-10.72,2.62-15.56,5.41-5.08.53-9.79,2.36-14.48,4.21l-2,.44c-10.65,3.25-21.32,6.42-31.93,9.79a10.23,10.23,0,0,1-8.56-.56c-5.29-2.8-10.79-5.18-16.2-7.73l-3-1.28a25,25,0,0,0-9.69-4.83,3.21,3.21,0,0,0-3.2-1.77c-4.65-3.5-9.91-5.81-15.29-7.89l-2-1c-1.85-1.06-3.58-2.47-5.56-3.12-7.77-2.53-12.31-7-10.49-15.83,0-.67,0-1.35,0-2q0-14,0-27.95v-60c0-.67,0-1.34,0-2q0-14,0-27.95c0-.68,0-1.35,0-2q0-14,0-28c0-.67,0-1.35,0-2q0-14,0-28c0-.67,0-1.34,0-2q0-13.49,0-27c0-1,0-2,0-3v-27c0-.67,0-1.34,0-2,.05-2.14.18-4.29.15-6.43,0-1.95.83-2.95,2.73-3.51,4.41-1.3,8.76-2.81,13.14-4.24a1.91,1.91,0,0,0,2.09-.6,175.09,175.09,0,0,0,27.95-8.07,116.18,116.18,0,0,0,24.9-7.21,9.26,9.26,0,0,0,5-1.38,1.68,1.68,0,0,0,2-.69,232.25,232.25,0,0,0,28-8.11c1.11.12,2.2.21,3-.84a233.14,233.14,0,0,0,27-7.95l2.08-.69a157.44,157.44,0,0,0,25.81-7.39c2.28-.59,4.91-.29,6.57-2.5,8.91-1,17.28-3.95,25.61-7.07l1.92-.43a105,105,0,0,0,16.95-4.9c2,.35,3.8-1.32,5.84-.57ZM317.46,621.18c-.69,3.54.07,5.49,4.17,3.84,2.85-1.14,6.09-1.19,8.66-3.11a2.1,2.1,0,0,0,2.11-.65l2-.41c9.43-2.23,18.74-4.88,27.9-8,1.12.18,2.18.19,2.94-.86,9.13-2.23,18.24-4.56,27-8a2.11,2.11,0,0,0,2.1-.65,39.44,39.44,0,0,0,12.93-3.94c-4.81-2.26-8.34-5.29-12.92-6.3l-5.07-2.83a235.61,235.61,0,0,0-23.77-12.2c-2.2-1.3-1.89.54-2.23,1.72-1.09,3.79-.72,8-3,11.42l-.16-27.94v-2c.06-6.24.17-12.48.16-18.72,0-2,0-4,2.06-5.1a80.28,80.28,0,0,0,19.4-5.85c8.44-1.36,16.42-4.19,24.47-6.78l.12-1.41-40.84-20.22c-1.59-1.16-1.93,0-2.16,1.2-.67,3.66-1.32,7.31-2,11-.25.24-.09,1.06-.83.61-.09-.06-.12-.28-.13-.42l-.27-12.18v-32c.94-3-1.42-6.72,2.15-9.07l2.09-.69a219.15,219.15,0,0,0,27.92-8.16l2-.37,9.92-2.62c.8-.22,1.72-.45,1.81-1.39s-.73-1.4-1.48-1.73c-3.42-1.51-6.45-3.9-10.22-4.61-1.53-1.15-2.89-2.66-5.11-2.2-7.12-5.72-15.79-8.57-23.7-12.82-1.38-.74-2.08.33-2.05,1.76-1.25,3.92-1.11,8.21-3.15,11.93q-.09-13.47-.19-26.95v-3l.18-19.45c0-1.8-.33-3.78,2-4.6,5-1,10-1.81,14.44-4.66,10.11-1.62,19.72-4.94,29.5-8.6-12.8-7-25.12-14.45-38.47-19.91-2.93-3.16-6.14-2.72-9.46-.73-8,2.17-16.17,4-24,7l-2.09.73a199.76,199.76,0,0,0-27.94,8.13l-2,.43c-9.48,2.38-19,4.55-28.05,8.45a63.37,63.37,0,0,0-18,5.16c-4.28.44-8.43,1.3-12.09,3.73l-1.8.3c-4.23,0-8,1.78-12,2.89-9,2.53-9,2.62-8.93,11.75,0,3.14.12,6.27.19,9.41,0,1,0,2,0,3.05q0,13.46,0,26.93l0,2.05q0,14,0,27.92v122c-.08,5.91-.19,11.83-.21,17.75,0,8.06,0,8.06,8,11.06,4.62,3.1,9.27,6.11,14.76,7.5,4.78,4.18,10.89,6,16.3,9,2,1.14,2.61-.31,2.66-2.05.1-4.45.18-8.9.27-13.34l.09-2c1.42-6.64.78-13.44,1.65-20.13l1.24.07c0,4.35-.23,8.73.91,13a1.18,1.18,0,0,0,.1,2l.2,5c0,.69.05,1.38.07,2.06.25,4.74.52,9.48.73,14.23.17,3.58,2,2.56,3.9,1.46a2,2,0,0,0,2.06-.67,205,205,0,0,0,27.94-8.06l2-.44c3.78-.63,8.16-.62,7-6.55V443.34c0-.67,0-1.34,0-2v-27c0-1,0-2,0-3,.05-2.16.14-4.33.14-6.49,0-2.32,1.27-3.27,3.41-3.4,2.68-.17,2.28,1.79,2.33,3.4.07,2.16.1,4.32.15,6.48v3q0,13.49,0,27v2q0,14,0,28V621.18Z" transform="translate(-135.36 -244.5)"/>
  <path class="cls-1" d="M263.53,441.34a231.83,231.83,0,0,0-.9-25.69l5.82-.3-.66,25.95c0,.69,0,1.38-.05,2.06l-1.08,27.92c-.55.91.5,3-1.88,2.54a1.76,1.76,0,0,0-.07-.56l-.06-1.92c-.06-9.35,0-18.71-1.08-28C263.56,442.66,263.55,442,263.53,441.34Z" transform="translate(-135.36 -244.5)"/>
  <path class="cls-1" d="M302.42,520.21c-2.79,0-3.11-1.81-3.11-4,0-4.3-.13-8.59-.21-12.89,0-.68,0-1.37,0-2.05.07-2.62.2-5.24.19-7.86,0-2.23.56-3.9,3.11-4.16l1.72,1.48,0,28.09Z" transform="translate(-135.36 -244.5)"/>
  <path class="cls-1" d="M329.81,503.31c-.11,2.81-.2,5.63-.32,8.44-.06,1.25-.46,2.36-1.91,2.48-1.74.15-2.34-1-2.35-2.51q0-12.45,0-24.9c0-1.25.43-2.37,1.89-2.49,1.74-.14,2.32,1,2.36,2.51.13,4.81.22,9.62.32,14.42C329.8,502,329.81,502.63,329.81,503.31Z" transform="translate(-135.36 -244.5)"/>
  <g>
    <path class="cls-1" d="M211.05,245.8H221.7v22.08h.18l10.05-22.08h11.18l-10.9,24,10.44,23H231l-9.07-19.51h-.18v19.51H211.05Z" transform="translate(-135.36 -244.5)"/>
    <path class="cls-1" d="M248.81,245.8h10.65v46.93H248.81Z" transform="translate(-135.36 -244.5)"/>
    <path class="cls-1" d="M266.35,245.8h25.42v10.72h-7.35v36.21H273.63V256.52h-7.28Z" transform="translate(-135.36 -244.5)"/>
    <path class="cls-1" d="M298.38,245.8H309.2q9.46,0,13.61,3.71A12.09,12.09,0,0,1,327,259q0,6.18-6,9.95,6.85,2.7,6.86,10.3a12.42,12.42,0,0,1-4.26,9.81q-4.25,3.72-11.21,3.72H298.38Zm10.65,9v10.13q7.14-.18,7.14-5c0-1.9-.57-3.22-1.71-4A10.53,10.53,0,0,0,309,254.8Zm0,18.63v10.16a12.74,12.74,0,0,0,6.06-1.24,4.14,4.14,0,0,0,2-3.89q0-5-7.2-5Z" transform="translate(-135.36 -244.5)"/>
    <path class="cls-1" d="M350.37,293.89q-8.5,0-13-6.52t-4.47-18.82q0-11.35,4.49-17.7a14.42,14.42,0,0,1,12.5-6.35q8.54,0,13.06,6.36T367.49,269q0,11.81-4.44,18.33A14.44,14.44,0,0,1,350.37,293.89ZM350,255.15q-5.78,0-5.77,13.54,0,8.71,1.46,11.63a4.57,4.57,0,0,0,4.24,2.92,5,5,0,0,0,4.58-2.92q1.61-2.91,1.6-11.42Q356.1,255.15,350,255.15Z" transform="translate(-135.36 -244.5)"/>
    <path class="cls-1" d="M371.4,245.8h11.81q4.53,11,5,12.66h.14a28.25,28.25,0,0,1,1.33-3.59l3.59-9.07H405l-10.9,22.39L406,292.73H394.14q-5.65-13.25-5.9-14.27h-.14a29.86,29.86,0,0,1-1.59,4.47l-4.32,9.8H370.55l11.57-24.39Z" transform="translate(-135.36 -244.5)"/>
  </g>
  <g>
    <path class="cls-1" d="M135.36,681.93h3.41l2,9.43h.05l1.83-9.43h3.09l1.85,9.33h.05l1.92-9.33h3.51l-3.75,15.65h-3.21l-1.49-7c-.17-.77-.3-1.5-.41-2.22h-.05c-.19,1.22-.34,2-.42,2.43l-1.48,6.79h-3.16Z" transform="translate(-135.36 -244.5)"/>
    <path class="cls-1" d="M155,681.93h3.55v5.8h3.15v-5.8h3.55v15.65h-3.55v-6.51h-3.15v6.51H155Z" transform="translate(-135.36 -244.5)"/>
    <path class="cls-1" d="M168.59,681.93h7.19v3.33h-3.64v2.88h3.16v3.25h-3.16v2.85h3.66v3.34h-7.21Z" transform="translate(-135.36 -244.5)"/>
    <path class="cls-1" d="M178.6,681.93h4.14a5.76,5.76,0,0,1,4,1.29,4.44,4.44,0,0,1,1.45,3.5,4.69,4.69,0,0,1-.55,2.2,3.64,3.64,0,0,1-1.6,1.6l2.83,7.06h-3.75l-2.87-7.13h-.06v7.13H178.6Zm3.55,3v3.72c1.57,0,2.36-.58,2.36-1.65a1.93,1.93,0,0,0-.55-1.56A2.94,2.94,0,0,0,182.15,685Z" transform="translate(-135.36 -244.5)"/>
    <path class="cls-1" d="M190.83,681.93H198v3.33h-3.63v2.88h3.15v3.25h-3.15v2.85H198v3.34h-7.21Z" transform="translate(-135.36 -244.5)"/>
    <path class="cls-1" d="M205.55,681.93H214v3.57h-2.45v12.08H208V685.5h-2.43Z" transform="translate(-135.36 -244.5)"/>
    <path class="cls-1" d="M216.23,681.93h3.55v5.8h3.15v-5.8h3.55v15.65h-3.55v-6.51h-3.15v6.51h-3.55Z" transform="translate(-135.36 -244.5)"/>
    <path class="cls-1" d="M229.83,681.93H237v3.33h-3.63v2.88h3.15v3.25h-3.15v2.85H237v3.34h-7.21Z" transform="translate(-135.36 -244.5)"/>
    <path class="cls-1" d="M244.28,681.93h3.41l2,9.43h0l1.82-9.43h3.1l1.85,9.33h.05l1.92-9.33H262l-3.75,15.65H255l-1.49-7c-.16-.77-.3-1.5-.41-2.22h0c-.2,1.22-.34,2-.43,2.43l-1.47,6.79H248Z" transform="translate(-135.36 -244.5)"/>
    <path class="cls-1" d="M268.8,698a4.9,4.9,0,0,1-4.32-2.17,11,11,0,0,1-1.49-6.28,10.15,10.15,0,0,1,1.49-5.9,4.82,4.82,0,0,1,4.17-2.11,5,5,0,0,1,4.35,2.12,10.39,10.39,0,0,1,1.51,6.06,10.76,10.76,0,0,1-1.49,6.11A4.79,4.79,0,0,1,268.8,698Zm-.13-12.91q-1.92,0-1.92,4.51a9.94,9.94,0,0,0,.49,3.88,1.51,1.51,0,0,0,1.41,1,1.67,1.67,0,0,0,1.53-1,9.13,9.13,0,0,0,.53-3.81Q270.71,685.06,268.67,685.05Z" transform="translate(-135.36 -244.5)"/>
    <path class="cls-1" d="M277.14,681.93h4.14a5.76,5.76,0,0,1,4,1.29,4.44,4.44,0,0,1,1.45,3.5,4.69,4.69,0,0,1-.55,2.2,3.59,3.59,0,0,1-1.6,1.6l2.83,7.06h-3.75l-2.87-7.13h-.06v7.13h-3.55Zm3.55,3v3.72c1.57,0,2.36-.58,2.36-1.65a1.93,1.93,0,0,0-.55-1.56A2.94,2.94,0,0,0,280.69,685Z" transform="translate(-135.36 -244.5)"/>
    <path class="cls-1" d="M289.38,681.93h3.55v12h2.81v3.63h-6.36Z" transform="translate(-135.36 -244.5)"/>
    <path class="cls-1" d="M298.14,681.93h3.32a6.74,6.74,0,0,1,5.24,2,8.26,8.26,0,0,1,1.79,5.74,10.31,10.31,0,0,1-.88,4.62,5.46,5.46,0,0,1-2.48,2.54,7.81,7.81,0,0,1-3.51.79h-3.48Zm3.55,3.33v9a2.89,2.89,0,0,0,2.29-1.15,6.19,6.19,0,0,0,.67-3.3,9.5,9.5,0,0,0-.24-2.3,3.33,3.33,0,0,0-.69-1.45,2,2,0,0,0-.91-.63A5.15,5.15,0,0,0,301.69,685.26Z" transform="translate(-135.36 -244.5)"/>
    <path class="cls-1" d="M316.76,681.93h3.61c2.11,0,3.62.41,4.54,1.24a4,4,0,0,1,1.38,3.14,3.78,3.78,0,0,1-2,3.32,3.38,3.38,0,0,1,2.28,3.43,4.11,4.11,0,0,1-1.42,3.27,5.44,5.44,0,0,1-3.73,1.25h-4.65Zm3.56,3v3.38c1.58,0,2.37-.59,2.37-1.66a1.48,1.48,0,0,0-.56-1.32A3.56,3.56,0,0,0,320.32,684.93Zm0,6.21v3.39a4.35,4.35,0,0,0,2-.42,1.37,1.37,0,0,0,.67-1.29q0-1.68-2.4-1.68Z" transform="translate(-135.36 -244.5)"/>
    <path class="cls-1" d="M328.69,681.93h3.65v11a1.76,1.76,0,0,0,.41,1.22,1.57,1.57,0,0,0,2.23,0,1.94,1.94,0,0,0,.42-1.32V681.93H339V692.2a8.69,8.69,0,0,1-.55,3.36,3.79,3.79,0,0,1-1.63,1.86,6.29,6.29,0,0,1-3,.59c-1.89,0-3.22-.49-4-1.45s-1.16-2.61-1.16-4.91Z" transform="translate(-135.36 -244.5)"/>
    <path class="cls-1" d="M342.36,681.93h3.55v15.65h-3.55Z" transform="translate(-135.36 -244.5)"/>
    <path class="cls-1" d="M349.38,681.93h3.55v12h2.81v3.63h-6.36Z" transform="translate(-135.36 -244.5)"/>
    <path class="cls-1" d="M358.14,681.93h3.32a6.74,6.74,0,0,1,5.24,2,8.26,8.26,0,0,1,1.79,5.74,10.31,10.31,0,0,1-.88,4.62,5.46,5.46,0,0,1-2.48,2.54,7.81,7.81,0,0,1-3.51.79h-3.48Zm3.55,3.33v9a2.89,2.89,0,0,0,2.29-1.15,6.19,6.19,0,0,0,.67-3.3,9.5,9.5,0,0,0-.24-2.3,3.33,3.33,0,0,0-.69-1.45,2,2,0,0,0-.91-.63A5.15,5.15,0,0,0,361.69,685.26Z" transform="translate(-135.36 -244.5)"/>
    <path class="cls-1" d="M370.88,697.28v-3.64a6,6,0,0,0,2.84,1,1.45,1.45,0,0,0,1-.37,1.27,1.27,0,0,0,.39-1,1.38,1.38,0,0,0-.31-.87,6,6,0,0,0-1.07-1,12.07,12.07,0,0,1-2.67-2.62,4.71,4.71,0,0,1-.83-2.7,4.37,4.37,0,0,1,4.59-4.58,7.32,7.32,0,0,1,3,.64v3.51a5.74,5.74,0,0,0-2.56-.87,1.58,1.58,0,0,0-1,.32,1.12,1.12,0,0,0-.38.89c0,.65.59,1.39,1.77,2.21a10.91,10.91,0,0,1,2.14,2,4.64,4.64,0,0,1,1.08,3,4.4,4.4,0,0,1-1.42,3.36,5.06,5.06,0,0,1-3.6,1.33A6.76,6.76,0,0,1,370.88,697.28Z" transform="translate(-135.36 -244.5)"/>
    <path class="cls-1" d="M395.49,693.88v3.72a6.68,6.68,0,0,1-2,.36,6.17,6.17,0,0,1-5-2.31,9.24,9.24,0,0,1-1.92-6.09,8.61,8.61,0,0,1,1.94-5.78,6.11,6.11,0,0,1,4.88-2.28,7,7,0,0,1,2.11.3v3.73a6,6,0,0,0-1.92-.34,2.75,2.75,0,0,0-2.3,1.26,5.39,5.39,0,0,0-.91,3.23,5.46,5.46,0,0,0,.92,3.33,2.9,2.9,0,0,0,2.45,1.23A5.35,5.35,0,0,0,395.49,693.88Z" transform="translate(-135.36 -244.5)"/>
    <path class="cls-1" d="M408.73,697.58H405l-.6-2.62h-3.75l-.62,2.62h-3.62l4.15-15.65h4Zm-5-5.43a67,67,0,0,1-1.19-6.65h-.05c-.28,2.17-.67,4.38-1.18,6.65Z" transform="translate(-135.36 -244.5)"/>
    <path class="cls-1" d="M410.53,681.93h3.61c2.1,0,3.61.41,4.53,1.24a4,4,0,0,1,1.38,3.14,3.78,3.78,0,0,1-2,3.32,3.38,3.38,0,0,1,2.28,3.43,4.14,4.14,0,0,1-1.41,3.27,5.49,5.49,0,0,1-3.74,1.25h-4.64Zm3.55,3v3.38c1.58,0,2.38-.59,2.38-1.66a1.46,1.46,0,0,0-.57-1.32A3.54,3.54,0,0,0,414.08,684.93Zm0,6.21v3.39a4.32,4.32,0,0,0,2-.42,1.37,1.37,0,0,0,.67-1.29q0-1.68-2.4-1.68Z" transform="translate(-135.36 -244.5)"/>
    <path class="cls-1" d="M422.89,681.93h3.55v15.65h-3.55Z" transform="translate(-135.36 -244.5)"/>
    <path class="cls-1" d="M429.91,681.93h3.59l4.51,9-.13-1.68v-7.34h3.55v15.65h-3.65l-4.41-8.89.09,1.95v6.94h-3.55Z" transform="translate(-135.36 -244.5)"/>
    <path class="cls-1" d="M444.79,681.93H452v3.33h-3.64v2.88h3.16v3.25h-3.16v2.85H452v3.34h-7.21Z" transform="translate(-135.36 -244.5)"/>
    <path class="cls-1" d="M453.63,681.93h8.47v3.57h-2.45v12.08h-3.6V685.5h-2.42Z" transform="translate(-135.36 -244.5)"/>
    <path class="cls-1" d="M464.3,697.28v-3.64a6,6,0,0,0,2.84,1,1.43,1.43,0,0,0,1.05-.37,1.27,1.27,0,0,0,.39-1,1.38,1.38,0,0,0-.31-.87,5.64,5.64,0,0,0-1.07-1,12.07,12.07,0,0,1-2.67-2.62,4.7,4.7,0,0,1-.82-2.7,4.36,4.36,0,0,1,4.58-4.58,7.32,7.32,0,0,1,3,.64v3.51a5.74,5.74,0,0,0-2.56-.87,1.6,1.6,0,0,0-1,.32,1.12,1.12,0,0,0-.38.89c0,.65.59,1.39,1.77,2.21a10.64,10.64,0,0,1,2.14,2,4.64,4.64,0,0,1,1.08,3,4.4,4.4,0,0,1-1.42,3.36,5.06,5.06,0,0,1-3.59,1.33A6.77,6.77,0,0,1,464.3,697.28Z" transform="translate(-135.36 -244.5)"/>
  </g>
</svg>
